# AST/ASF file generated using VICON BodyLanguage
# -----------------------------------------------
:version 1.10
:name VICON
:units
  mass 1.0
  length 0.45
  angle deg
:documentation
   .ast/.asf automatically generated from VICON data using
   VICON BodyBuilder and BodyLanguage model FoxedUp or BRILLIANT.MOD
:root
   order TX TY TZ RX RY RZ
   axis XYZ
   position 0 0 0  
   orientation 0 0 0 
:bonedata
  begin
     id 1 
     name lhipjoint
     direction 0.702568 -0.596508 0.388042 
     length 2.56661 
     axis 0 0 0  XYZ
  end
  begin
     id 2 
     name lfemur
     direction 0.34202 -0.939693 0  
     length 6.58374  
     axis 0 0 20  XYZ
    dof rx ry rz
    limits (-160.0 20.0)
           (-70.0 70.0)
           (-60.0 70.0)
  end
  begin
     id 3 
     name ltibia
     direction 0.34202 -0.939693 0   
     length 6.62538   
     axis 0 0 20   XYZ
    dof rx
    limits (-10.0 170.0)
  end
  begin
     id 4 
     name lfoot
     direction 0.10455 -0.287249 0.952133   
     length 2.26699   
     axis -90 7.62852e-016 20   XYZ
    dof rx rz
    limits (-45.0 90.0)
           (-70.0 20.0)
  end
  begin
     id 5 
     name ltoes
     direction 1.53572e-011 -4.22322e-011 1   
     length 1.12949   
     axis -90 7.62852e-016 20   XYZ
    dof rx
    limits (-90.0 20.0)
  end
  begin
     id 6 
     name rhipjoint
     direction -0.728055 -0.574632 0.373811   
     length 2.66432  
     axis 0 0 0  XYZ 
  end
  begin
     id 7 
     name rfemur
     direction -0.34202 -0.939693 0   
     length 6.66732   
     axis 0 0 -20   XYZ
    dof rx ry rz
    limits (-160.0 20.0)
           (-70.0 70.0)
           (-70.0 60.0)
  end
  begin
     id 8 
     name rtibia
     direction -0.34202 -0.939693 0   
     length 6.59288   
     axis 0 0 -20   XYZ
    dof rx
    limits (-10.0 170.0)
 end
 begin
     id 9 
     name rfoot
     direction -0.119193 -0.327479 0.93731   
     length 2.38061  
     axis -90 -7.62852e-016 -20   XYZ
    dof rx rz
    limits (-45.0 90.0)
           (-20.0 70.0)
  end
  begin
     id 10 
     name rtoes
     direction -1.53547e-011 -4.21827e-011 1   
     length 1.17899   
     axis -90 -7.62852e-016 -20   XYZ
    dof rx
    limits (-90.0 20.0)
  end
  begin
     id 11 
     name lowerback
     direction -0.000416114 0.999912 -0.0132284   
     length 2.12109   
     axis 0 0 0   XYZ
    dof rx ry rz
    limits (-20.0 45.0)
           (-30.0 30.0)
           (-30.0 30.0)
  end
  begin
     id 12 
     name upperback
     direction -0.00136371 0.99809 0.0617608   
     length 2.10067   
     axis 0 0 0   XYZ
    dof rx ry rz
    limits (-20.0 45.0)
           (-30.0 30.0)
           (-30.0 30.0)
  end
  begin
     id 13 
     name thorax
     direction -3.43026e-005 0.997776 0.0666515   
     length 2.10618   
     axis 0 0 0   XYZ
    dof rx ry rz
    limits (-20.0 45.0)
           (-30.0 30.0)
           (-30.0 30.0)
  end
  begin
     id 14 
     name lowerneck
     direction 0.0398646 0.998418 0.0396592   
     length 1.83817   
     axis 0 0 0   XYZ
    dof rx ry rz
    limits (-20.0 45.0)
           (-30.0 30.0)
           (-30.0 30.0)
  end
  begin
     id 15 
     name upperneck
     direction -0.0367268 0.961527 -0.272244   
     length 1.81975   
     axis 0 0 0   XYZ
    dof rx ry rz
    limits (-20.0 45.0)
           (-30.0 30.0)
           (-30.0 30.0)
  end
  begin
     id 16
     name head
     direction -0.0182665 0.99536 -0.0944669  
     length 1.86026  
     axis 0 0 0   XYZ
    dof rx ry rz
    limits (-20.0 45.0)
           (-30.0 30.0)
           (-30.0 30.0)
  end
  begin
     id 17 
     name lclavicle
     direction 0.924239 0.361045 0.124212  
     length 3.26878  
     axis 0 0 0   XYZ
    dof ry rz
    limits (-20.0 10.0)
           (0.0 20.0)
  end
  begin
     id 18 
     name lhumerus
     direction 1 -4.48968e-011 -2.56583e-027   
     length 4.58538   
     axis 180 -30 -90   XYZ
    dof rx ry rz
    limits (-60.0 90.0)
           (-90.0 90.0)
           (-90.0 90.0)
  end
  begin
     id 19
     name lradius
     direction 1 -4.4898e-011 -5.50375e-027   
     length 2.68935   
     axis 180 -30 -90   XYZ
    dof rx
    limits (-10.0 170.0)
  end
  begin
     id 20
     name lwrist
     direction 1 -4.48939e-011 -1.48955e-026   
     length 1.34468   
     axis 9.0955e-015 90 90   XYZ
    dof ry
    limits (-180.0 0.0)
 end
  begin
     id 21 
     name lhand
     direction 1 -4.48936e-011 -2.97907e-026   
     length 0.585058   
     axis 1.90115e-014 90 90   XYZ
    dof rx rz
    limits (-90.0 90.0)
           (-45.0 45.0)
  end
  begin
     id 22 
     name lfingers
     direction 1 -4.49082e-011 -5.96235e-026   
     length 0.471689   
     axis 3.80223e-014 90 90   XYZ
    dof rx
    limits (0.0 90.0)
  end
  begin
     id 23
     name lthumb
     direction 0.707107 -6.3489e-011 0.707107   
     length 0.677253   
     axis -90 45 -3.84942e-014   XYZ
    dof rx rz
    limits (-45.0 45.0)
           (-45.0 45.0)
  end
  begin
     id 24 
     name rclavicle
     direction -0.923098 0.371783 0.0983239   
     length 3.19656  
     axis 0 0 0   XYZ 
    dof ry rz
    limits (-10.0 20.0)
           (-20.0 0.0)
  end
  begin
     id 25 
     name rhumerus
     direction -1 -4.48976e-011 -2.5492e-027  
     length 4.4745   
     axis 180 30 90   XYZ
    dof rx ry rz
    limits (-90.0 60.0)
           (-90.0 90.0)
           (-90.0 90.0)
  end
  begin
     id 26 
     name rradius
     direction -1 -4.48941e-011 -4.36555e-027   
     length 2.93896   
     axis 180 30 90   XYZ
    dof rx
    limits (-10.0 170.0)
  end
  begin
     id 27 
     name rwrist
     direction -1 -4.49044e-011 -1.49032e-026   
     length 1.46948   
     axis 9.0955e-015 -90 -90   XYZ
    dof ry
    limits (-180.0 0.0)
  end
  begin
     id 28
     name rhand
     direction -1 -4.48826e-011 -2.97749e-026   
     length 0.405092   
     axis 1.90115e-014 -90 -90   XYZ
    dof rx rz
    limits (-90.0 90.0)
           (-45.0 45.0)
  end
  begin
     id 29
     name rfingers
     direction -1 -4.49209e-011 -5.96602e-026   
     length 0.326596   
     axis 3.80223e-014 -90 -90   XYZ
    dof rx
    limits (0.0 90.0)
  end
  begin
     id 30
     name rthumb
     direction -0.707107 -6.34776e-011 0.707107   
     length 0.468928   
     axis -90 -45 3.84942e-014   XYZ
    dof rx rz
    limits (-45.0 45.0)
           (-45.0 45.0)
  end
:hierarchy
  begin
    root lhipjoint rhipjoint lowerback
    lhipjoint lfemur
    lfemur ltibia
    ltibia lfoot
    lfoot ltoes
    rhipjoint rfemur
    rfemur rtibia
    rtibia rfoot
    rfoot rtoes
    lowerback upperback
    upperback thorax
    thorax lowerneck lclavicle rclavicle
    lowerneck upperneck
    upperneck head
    lclavicle lhumerus
    lhumerus lradius
    lradius lwrist
    lwrist lhand lthumb
    lhand lfingers
    rclavicle rhumerus
    rhumerus rradius
    rradius rwrist
    rwrist rhand rthumb
    rhand rfingers
  end

#!OML:ASF H:\Punching\Project 1\Capture day 1\Session 1\female.ASF
:FULLY-SPECIFIED
:DEGREES
498
root 2.61941 15.6149 7.01014 14.7808 -5.8956 -2.89075
lowerback -4.80342 0.480373 4.14411
upperback -6.57855 0.580841 0.950796
thorax -4.08822 0.125283 -1.32773
lowerneck -8.80193 2.47445 9.91378
upperneck 23.8056 3.1927 -6.56431
head 9.16574 1.69622 -3.61187
rclavicle 2.56867e-015 -1.55052e-014
rhumerus -44.6572 4.86967 -85.6632
rradius 30.7334
rwrist -3.78556
rhand -10.9278 -13.4879
rfingers 7.12502
rthumb 15.0901 -42.9179
lclavicle 2.56867e-015 -1.55052e-014
lhumerus -46.6763 -6.98997 87.4294
lradius 38.1139
lwrist -6.97617
lhand -5.30293 15.5024
lfingers 7.12502
lthumb 20.5023 44.4399
rfemur -16.1394 6.40889 18.8499
rtibia 26.4337
rfoot -19.8625 -24.4149
rtoes -2.73959
lfemur -15.4287 -7.68045 -17.9369
ltibia 27.2103
lfoot -24.6342 25.2917
ltoes 3.35527
499
root 2.61485 15.6186 7.00722 14.7789 -6.24293 -3.04992
lowerback -4.92344 0.514074 4.35087
upperback -6.57042 0.61272 0.903756
thorax -4.01005 0.132096 -1.49053
lowerneck -8.63738 2.58757 10.0456
upperneck 23.4784 3.36139 -6.68363
head 9.04124 1.77348 -3.65209
rclavicle -6.17785e-015 1.56046e-014
rhumerus -44.5902 4.35844 -85.075
rradius 29.6295
rwrist -3.18643
rhand -9.61851 -13.9526
rfingers 7.12502
rthumb 16.351 -43.2834
lclavicle -6.17785e-015 1.56046e-014
lhumerus -46.6662 -5.68352 86.299
lradius 36.0421
lwrist -7.57379
lhand -4.69829 15.4391
lfingers 7.12502
lthumb 21.0833 44.3129
rfemur -15.9435 7.27485 18.8986
rtibia 26.0056
rfoot -19.7369 -24.6824
rtoes -2.5984
lfemur -15.3401 -7.73198 -17.8183
ltibia 27.233
lfoot -24.8321 25.6355
ltoes 3.66714
500
root 2.61005 15.6212 7.00379 14.7962 -6.58619 -3.22372
lowerback -5.04918 0.543499 4.56078
upperback -6.56682 0.638471 0.87189
thorax -3.93388 0.136153 -1.63934
lowerneck -8.47736 2.70247 10.1709
upperneck 23.159 3.53383 -6.80578
head 8.9216 1.85198 -3.69218
rclavicle 6.59095e-015 -1.28216e-014
rhumerus -44.5067 3.89289 -84.5232
rradius 28.6083
rwrist -2.49366
rhand -8.17427 -14.3377
rfingers 7.12502
rthumb 17.7412 -43.5484
lclavicle 6.59095e-015 -1.28216e-014
lhumerus -46.7098 -4.33077 85.1804
lradius 34.2284
lwrist -7.87215
lhand -4.11298 15.4191
lfingers 7.12502
lthumb 21.6455 44.2292
rfemur -15.8096 8.07296 18.952
rtibia 25.6363
rfoot -19.6236 -24.8552
rtoes -2.48441
lfemur -15.2875 -7.76795 -17.6785
ltibia 27.2909
lfoot -25.0513 25.9578
ltoes 3.96051
501
root 2.60499 15.6223 6.99995 14.8406 -6.92791 -3.39172
lowerback -5.18929 0.568096 4.75028
upperback -6.57294 0.657279 0.848607
thorax -3.8604 0.137775 -1.76781
lowerneck -8.32562 2.81916 10.293
upperneck 22.8563 3.70835 -6.92658
head 8.81041 1.93167 -3.73157
rclavicle -6.05983e-015 -2.06736e-014
rhumerus -44.4104 3.44466 -83.9969
rradius 27.6817
rwrist -1.73446
rhand -6.63712 -14.682
rfingers 7.12502
rthumb 19.2198 -43.7523
lclavicle -6.05983e-015 -2.06736e-014
lhumerus -46.8315 -2.97028 84.0973
lradius 32.7084
lwrist -7.89119
lhand -3.6077 15.4549
lfingers 7.12502
lthumb 22.1306 44.2083
rfemur -15.7375 8.78405 18.9971
rtibia 25.3182
rfoot -19.5267 -24.9506
rtoes -2.38758
lfemur -15.2807 -7.78501 -17.5391
ltibia 27.3804
lfoot -25.2877 26.2557
ltoes 4.2345
502
root 2.59998 15.6218 6.99655 14.898 -7.26318 -3.53686
lowerback -5.33785 0.5876 4.90793
upperback -6.58374 0.669132 0.826459
thorax -3.78762 0.137345 -1.87734
lowerneck -8.19689 2.93679 10.418
upperneck 22.5743 3.8821 -7.049
head 8.7116 2.01121 -3.77258
rclavicle -2.72087e-014 1.23246e-014
rhumerus -44.309 2.98375 -83.4777
rradius 26.8532
rwrist -0.944666
rhand -5.06834 -14.8039
rfingers 7.12502
rthumb 20.7277 -43.7169
lclavicle -2.72087e-014 1.23246e-014
lhumerus -47.0432 -1.65831 83.0851
lradius 31.5053
lwrist -7.6432
lhand -3.1876 15.5615
lfingers 7.12502
lthumb 22.5339 44.2666
rfemur -15.7047 9.36961 19.0277
rtibia 25.0551
rfoot -19.4588 -24.9658
rtoes -2.3295
lfemur -15.296 -7.79987 -17.422
ltibia 27.4846
lfoot -25.5351 26.5372
ltoes 4.49084
503
root 2.59464 15.6208 6.99354 14.9777 -7.59621 -3.64845
lowerback -5.51098 0.604184 5.01845
upperback -6.59679 0.676228 0.800821
thorax -3.70378 0.136773 -1.96405
lowerneck -8.09449 3.05322 10.5413
upperneck 22.3087 4.05049 -7.16462
head 8.62351 2.08868 -3.81179
rclavicle -4.00831e-015 8.15017e-015
rhumerus -44.2039 2.50038 -82.9708
rradius 26.1368
rwrist -0.174819
rhand -3.53816 -14.7677
rfingers 7.12502
rthumb 22.1974 -43.5132
lclavicle -4.00831e-015 8.15017e-015
lhumerus -47.341 -0.452886 82.1718
lradius 30.6068
lwrist -7.26221
lhand -2.82887 15.6805
lfingers 7.12502
lthumb 22.8782 44.3434
rfemur -15.7268 9.83736 19.0357
rtibia 24.8561
rfoot -19.4105 -24.9252
rtoes -2.32762
lfemur -15.3349 -7.80474 -17.3373
ltibia 27.5795
lfoot -25.7744 26.8021
ltoes 4.72819
504
root 2.58868 15.6198 6.99102 15.0723 -7.91556 -3.71618
lowerback -5.69931 0.612937 5.07086
upperback -6.61443 0.673204 0.76996
thorax -3.61702 0.133538 -2.02384
lowerneck -8.0143 3.16706 10.6571
upperneck 22.06 4.21179 -7.2678
head 8.54497 2.16333 -3.84639
rclavicle -2.07792e-015 9.69075e-015
rhumerus -44.1151 2.00326 -82.4856
rradius 25.5535
rwrist 0.524674
rhand -2.08133 -14.6173
rfingers 7.12502
rthumb 23.5954 -43.1896
lclavicle -2.07792e-015 9.69075e-015
lhumerus -47.7293 0.604518 81.3842
lradius 29.9937
lwrist -6.86353
lhand -2.47207 15.7741
lfingers 7.12502
lthumb 23.2205 44.3943
rfemur -15.8001 10.2038 19.0149
rtibia 24.7277
rfoot -19.382 -24.8637
rtoes -2.37259
lfemur -15.3846 -7.79506 -17.2944
ltibia 27.6436
lfoot -25.9838 27.042
ltoes 4.93895
505
root 2.58193 15.6193 6.98902 15.1715 -8.21274 -3.73961
lowerback -5.89426 0.611853 5.06569
upperback -6.63496 0.658257 0.734194
thorax -3.53049 0.126628 -2.05687
lowerneck -7.9522 3.27557 10.7597
upperneck 21.826 4.36272 -7.35524
head 8.47375 2.23345 -3.8746
rclavicle -1.68955e-014 1.23992e-014
rhumerus -44.0601 1.52146 -82.0459
rradius 25.1218
rwrist 1.07589
rhand -0.749404 -14.3803
rfingers 7.12502
rthumb 24.8724 -42.7823
lclavicle -1.68955e-014 1.23992e-014
lhumerus -48.1963 1.49021 80.7398
lradius 29.6287
lwrist -6.54684
lhand -2.06531 15.7949
lfingers 7.12502
lthumb 23.6107 44.3652
rfemur -15.9139 10.4843 18.9673
rtibia 24.6679
rfoot -19.3675 -24.8048
rtoes -2.45335
lfemur -15.4303 -7.76982 -17.2929
ltibia 27.6636
lfoot -26.1492 27.2514
ltoes 5.12634
506
root 2.57422 15.6194 6.98726 15.2641 -8.48678 -3.7199
lowerback -6.08174 0.600695 5.00131
upperback -6.65587 0.632383 0.694761
thorax -3.44934 0.116515 -2.0611
lowerneck -7.90874 3.37856 10.8507
upperneck 21.6062 4.50365 -7.43082
head 8.40975 2.29893 -3.89794
rclavicle -1.12377e-014 -4.28629e-016
rhumerus -44.0446 1.08739 -81.6765
rradius 24.8433
rwrist 1.40975
rhand 0.42426 -14.1081
rfingers 7.12502
rthumb 25.9967 -42.3498
lclavicle -1.12377e-014 -4.28629e-016
lhumerus -48.7242 2.19974 80.2482
lradius 29.4782
lwrist -6.36443
lhand -1.56814 15.7215
lfingers 7.12502
lthumb 24.0875 44.2295
rfemur -16.0539 10.7007 18.894
rtibia 24.6682
rfoot -19.3595 -24.7622
rtoes -2.56189
lfemur -15.4601 -7.73174 -17.3323
ltibia 27.6363
lfoot -26.2644 27.4355
ltoes 5.28569
507
root 2.5656 15.6198 6.98546 15.3393 -8.73647 -3.66799
lowerback -6.24245 0.581127 4.88815
upperback -6.67759 0.599094 0.654971
thorax -3.3845 0.104311 -2.03899
lowerneck -7.88125 3.47261 10.9286
upperneck 21.4019 4.63046 -7.49481
head 8.35229 2.3577 -3.91671
rclavicle 5.17927e-015 -2.21396e-014
rhumerus -44.0725 0.736361 -81.4033
rradius 24.7159
rwrist 1.46973
rhand 1.42853 -13.8784
rfingers 7.12502
rthumb 26.9579 -41.9753
lclavicle 5.17927e-015 -2.21396e-014
lhumerus -49.2943 2.75301 79.9022
lradius 29.5076
lwrist -6.32312
lhand -0.965895 15.5387
lfingers 7.12502
lthumb 24.6649 43.9691
rfemur -16.2022 10.8673 18.8044
rtibia 24.7149
rfoot -19.3538 -24.731
rtoes -2.67659
lfemur -15.4655 -7.67247 -17.402
ltibia 27.5679
lfoot -26.333 27.5858
ltoes 5.41785
508
root 2.55621 15.6207 6.98312 15.3893 -8.96197 -3.59592
lowerback -6.36176 0.551833 4.73797
upperback -6.69854 0.557293 0.620831
thorax -3.34248 0.0890053 -1.99102
lowerneck -7.86458 3.56021 10.995
upperneck 21.2094 4.74903 -7.55746
head 8.29991 2.41177 -3.93406
rclavicle -5.70225e-015 -7.1811e-015
rhumerus -44.1341 0.512652 -81.2521
rradius 24.7204
rwrist 1.23831
rhand 2.21839 -13.7292
rfingers 7.12502
rthumb 27.7134 -41.707
lclavicle -5.70225e-015 -7.1811e-015
lhumerus -49.8884 3.18914 79.6863
lradius 29.694
lwrist -6.37295
lhand -0.269737 15.2677
lfingers 7.12502
lthumb 25.332 43.6054
rfemur -16.3446 10.9889 18.7085
rtibia 24.7926
rfoot -19.3463 -24.6921
rtoes -2.78546
lfemur -15.4421 -7.61757 -17.4888
ltibia 27.4685
lfoot -26.3656 27.7252
ltoes 5.53236
509
root 2.5463 15.6218 6.97998 15.407 -9.16686 -3.51467
lowerback -6.4221 0.517317 4.56363
upperback -6.71945 0.513461 0.592566
thorax -3.33328 0.0731373 -1.92397
lowerneck -7.86283 3.63942 11.0536
upperneck 21.033 4.85555 -7.61757
head 8.25443 2.4597 -3.95062
rclavicle 1.08524e-014 -2.04251e-014
rhumerus -44.2241 0.404512 -81.2147
rradius 24.8312
rwrist 0.769167
rhand 2.8218 -13.6585
rfingers 7.12502
rthumb 28.2903 -41.5421
lclavicle 1.08524e-014 -2.04251e-014
lhumerus -50.4889 3.53038 79.5839
lradius 30.0152
lwrist -6.43102
lhand 0.495813 14.9321
lfingers 7.12502
lthumb 26.0652 43.1638
rfemur -16.4664 11.0879 18.6135
rtibia 24.8853
rfoot -19.3355 -24.6429
rtoes -2.87202
lfemur -15.3861 -7.57261 -17.5828
ltibia 27.3522
lfoot -26.3766 27.8596
ltoes 5.63401
510
root 2.53641 15.6229 6.97603 15.3902 -9.35275 -3.43608
lowerback -6.41888 0.478754 4.38217
upperback -6.73605 0.468367 0.571998
thorax -3.35487 0.056625 -1.8454
lowerneck -7.88085 3.71301 11.1033
upperneck 20.869 4.95274 -7.67205
head 8.21555 2.50279 -3.96467
rclavicle -1.24427e-014 -6.06293e-015
rhumerus -44.3211 0.402301 -81.2795
rradius 25.0156
rwrist 0.154446
rhand 3.25358 -13.6443
rfingers 7.12502
rthumb 28.7028 -41.4588
lclavicle -1.24427e-014 -6.06293e-015
lhumerus -51.0774 3.82101 79.5645
lradius 30.4618
lwrist -6.41526
lhand 1.30639 14.5838
lfingers 7.12502
lthumb 26.8411 42.6987
rfemur -16.5563 11.1552 18.5295
rtibia 24.9781
rfoot -19.3194 -24.5612
rtoes -2.94013
lfemur -15.2989 -7.54023 -17.6736
ltibia 27.2342
lfoot -26.3767 27.9907
ltoes 5.72969
